<svg id="Layer_1" data-name="Layer 1" xmlns="http://www.w3.org/2000/svg" viewBox="0 0 600 600"><defs><style>.cls-1{fill:#7ac943;}.cls-2{fill:#fff;}.cls-3{fill:none;}.cls-4{fill:#054a91;}.cls-5{fill:#3e7cb1;}.cls-6{fill:#81a4cd;}.cls-7{fill:#fbb03b;}</style></defs><title>Artboard 1</title><circle class="cls-1" cx="300" cy="68.5" r="62.5"/><circle class="cls-1" cx="83.5" cy="443.5" r="62.5"/><circle class="cls-1" cx="516.5" cy="443.5" r="62.5"/><path class="cls-2" d="M374.06,80.32q-2-1.3-4-2.56Q372.06,79,374.06,80.32Z"/><path class="cls-3" d="M91.93,269.05c-.66,1-1.31,1.93-2,2.9C90.62,271,91.27,270,91.93,269.05Z"/><path class="cls-3" d="M75,298.42l-.36.78Z"/><path class="cls-3" d="M84.43,280.8c-.83,1.4-1.65,2.79-2.44,4.19C82.78,283.59,83.6,282.2,84.43,280.8Z"/><path class="cls-3" d="M69.75,310.36l-.08.21Z"/><path class="cls-3" d="M97,261.92c-.65.87-1.28,1.74-1.9,2.61C95.71,263.66,96.34,262.79,97,261.92Z"/><path class="cls-3" d="M56.62,362.88c-.17,1.66-.33,3.31-.46,4.95C56.29,366.19,56.45,364.54,56.62,362.88Z"/><polygon class="cls-4" points="55.74 373.83 55.74 373.83 55.74 373.83 55.74 373.83"/><path class="cls-4" d="M102.28,255q-2.75,3.47-5.29,6.94Q99.54,258.46,102.28,255Z"/><path class="cls-4" d="M90,272c-2,2.95-3.79,5.9-5.55,8.85C86.19,277.85,88,274.9,90,272Z"/><path class="cls-4" d="M95.09,264.53c-1.08,1.51-2.13,3-3.16,4.52C93,267.54,94,266,95.09,264.53Z"/><path class="cls-4" d="M82,285q-3.81,6.74-7,13.43Q78.18,291.73,82,285Z"/><path class="cls-4" d="M74.62,299.2q-2.64,5.6-4.87,11.16Q72,304.79,74.62,299.2Z"/><path class="cls-4" d="M69.67,310.57a197.69,197.69,0,0,0-13.05,52.31A197.69,197.69,0,0,1,69.67,310.57Z"/><path class="cls-4" d="M55.74,373.83h0q.16-3,.42-6Q55.91,370.85,55.74,373.83Z"/><path class="cls-3" d="M90,272c-2,2.95-3.79,5.9-5.55,8.85C86.19,277.85,88,274.9,90,272Z"/><path class="cls-3" d="M82,285q-1.9,3.38-3.66,6.73Q80.09,288.36,82,285Z"/><path class="cls-5" d="M338.47,518.73c-3.52-.59-6.94-1.25-10.29-2a201.45,201.45,0,0,1-28.18,2,199.35,199.35,0,0,1-143-60.21,75.11,75.11,0,0,1-50.26,56.27,275.44,275.44,0,0,0,386.53,0,74.89,74.89,0,0,1-24.59-13.55C435.25,517.8,392.06,527.74,338.47,518.73Z"/><path class="cls-5" d="M116.93,238.13q-5.75,6-11.43,12.87c-1.09,1.33-2.17,2.65-3.22,4q-2.75,3.47-5.29,6.94c-.65.87-1.28,1.74-1.9,2.61-1.08,1.51-2.13,3-3.16,4.52-.66,1-1.31,1.93-2,2.9-2,2.95-3.79,5.9-5.55,8.85-.83,1.4-1.65,2.79-2.44,4.19q-1.9,3.38-3.66,6.73c-1.17,2.24-2.28,4.47-3.35,6.7l-.36.78q-2.64,5.6-4.87,11.16l-.08.21a197.69,197.69,0,0,0-13.05,52.31c-.17,1.66-.33,3.31-.46,4.95q-.25,3-.42,6a75,75,0,0,1,51.54-1.46,200.69,200.69,0,0,1,9.65-134.24Z"/><path class="cls-4" d="M458.86,197.25q-2-6.47-4.5-13.18c-19-51-49.25-83.28-80.3-103.75a74.91,74.91,0,0,1-24.65,44.59A200.12,200.12,0,0,1,458.86,197.25Z"/><path class="cls-4" d="M69.67,310.57l.08-.21q2.22-5.57,4.87-11.16l.36-.78c1.07-2.23,2.18-4.46,3.35-6.7S80.72,287.24,82,285c.79-1.4,1.61-2.79,2.44-4.19,1.76-2.95,3.6-5.9,5.55-8.85.64-1,1.29-1.94,2-2.9,1-1.51,2.08-3,3.16-4.52.62-.87,1.25-1.74,1.9-2.61q2.55-3.46,5.29-6.94c1-1.33,2.13-2.65,3.22-4q5.67-6.87,11.43-12.87A200.45,200.45,0,0,1,250.6,124.9a74.94,74.94,0,0,1-24-72C110.1,85,24.5,191.75,24.5,318.5a275.94,275.94,0,0,0,8.81,69.31,74.88,74.88,0,0,1,22.43-14q.16-3,.42-6c.13-1.64.29-3.29.46-4.95A197.69,197.69,0,0,1,69.67,310.57Z"/><path class="cls-4" d="M78.33,291.72c-1.17,2.24-2.28,4.47-3.35,6.7C76.05,296.19,77.16,294,78.33,291.72Z"/><path class="cls-6" d="M373.36,52.89a75,75,0,0,1,.7,27.43c31.05,20.47,61.29,52.77,80.3,103.75q2.5,6.72,4.5,13.18a200.31,200.31,0,0,1,33.86,175.12,75,75,0,0,1,74,15.42,276.23,276.23,0,0,0,8.79-69.29C575.5,191.75,489.9,85,373.36,52.89Z"/><path class="cls-6" d="M328.18,516.76c3.35.72,6.77,1.38,10.29,2,53.59,9,96.78-.93,130.2-17.46A75,75,0,0,1,443,458.54,199.4,199.4,0,0,1,328.18,516.76Z"/><circle class="cls-7" cx="300" cy="313.75" r="100"/></svg>