<svg id="Layer_1" data-name="Layer 1" xmlns="http://www.w3.org/2000/svg" viewBox="0 0 800 250"><defs><style>.cls-1{font-size:115px;fill:#606060;stroke:#fff;stroke-miterlimit:10;stroke-width:0.25px;font-family:Futura-Medium, Futura;font-weight:500;letter-spacing:-0.01em;}.cls-2{letter-spacing:0em;}.cls-3{fill:#7ac943;}.cls-4{fill:#fff;}.cls-5{fill:none;}.cls-6{fill:#054a91;}.cls-7{fill:#3e7cb1;}.cls-8{fill:#81a4cd;}.cls-9{fill:#fbb03b;}</style></defs><title>Artboard 1</title><text class="cls-1" transform="translate(292.33 162.04)">F<tspan class="cls-2" x="57.67" y="0">abulous</tspan></text><circle class="cls-3" cx="125" cy="46.26" r="21.26"/><circle class="cls-3" cx="51.36" cy="173.81" r="21.26"/><circle class="cls-3" cx="198.64" cy="173.81" r="21.26"/><path class="cls-4" d="M150.19,50.28c-.45-.3-.9-.59-1.36-.87C149.29,49.69,149.74,50,150.19,50.28Z"/><path class="cls-5" d="M54.23,114.47q-.34.5-.66,1Q53.89,115,54.23,114.47Z"/><path class="cls-5" d="M48.46,124.46l-.12.27Z"/><path class="cls-5" d="M51.68,118.47c-.29.47-.56,1-.83,1.42C51.12,119.42,51.39,118.94,51.68,118.47Z"/><path class="cls-5" d="M46.68,128.52l0,.08Z"/><path class="cls-5" d="M56,112.05c-.22.29-.44.59-.65.89C55.51,112.64,55.73,112.34,56,112.05Z"/><path class="cls-5" d="M42.22,146.39c-.06.56-.11,1.12-.16,1.68C42.11,147.51,42.16,147,42.22,146.39Z"/><polygon class="cls-6" points="41.92 150.11 41.92 150.11 41.92 150.11 41.92 150.11"/><path class="cls-6" d="M57.75,109.69c-.62.78-1.22,1.57-1.8,2.36C56.53,111.26,57.13,110.47,57.75,109.69Z"/><path class="cls-6" d="M53.57,115.46c-.67,1-1.3,2-1.89,3C52.27,117.47,52.9,116.46,53.57,115.46Z"/><path class="cls-6" d="M55.3,112.94l-1.07,1.53Z"/><path class="cls-6" d="M50.85,119.89c-.87,1.53-1.66,3.06-2.39,4.57C49.19,123,50,121.42,50.85,119.89Z"/><path class="cls-6" d="M48.34,124.73c-.6,1.27-1.15,2.53-1.66,3.79C47.19,127.26,47.74,126,48.34,124.73Z"/><path class="cls-6" d="M46.66,128.6a67.08,67.08,0,0,0-4.44,17.79A67.08,67.08,0,0,1,46.66,128.6Z"/><path class="cls-6" d="M41.92,150.11h0c0-.67.08-1.35.14-2C42,148.76,42,149.44,41.92,150.11Z"/><path class="cls-5" d="M53.57,115.46c-.67,1-1.3,2-1.89,3C52.27,117.47,52.9,116.46,53.57,115.46Z"/><path class="cls-5" d="M50.85,119.89c-.44.77-.85,1.53-1.25,2.29C50,121.42,50.41,120.66,50.85,119.89Z"/><path class="cls-7" d="M138.09,199.4c-1.2-.2-2.37-.43-3.51-.67a68.81,68.81,0,0,1-9.58.67,67.82,67.82,0,0,1-48.64-20.47,25.57,25.57,0,0,1-17.1,19.14,93.71,93.71,0,0,0,131.48,0,25.54,25.54,0,0,1-8.37-4.61C171,199.08,156.31,202.46,138.09,199.4Z"/><path class="cls-7" d="M62.73,104c-1.3,1.36-2.6,2.81-3.89,4.37-.37.45-.73.91-1.09,1.36-.62.78-1.22,1.57-1.8,2.36-.22.29-.44.59-.65.89l-1.07,1.53q-.34.5-.66,1c-.67,1-1.3,2-1.89,3-.29.47-.56,1-.83,1.42-.44.77-.85,1.53-1.25,2.29s-.77,1.52-1.14,2.28l-.12.27c-.6,1.27-1.15,2.53-1.66,3.79l0,.08a67.08,67.08,0,0,0-4.44,17.79c-.06.56-.11,1.12-.16,1.68s-.11,1.37-.14,2a25.49,25.49,0,0,1,17.53-.49A68.21,68.21,0,0,1,62.73,104Z"/><path class="cls-6" d="M179,90.05q-.67-2.2-1.53-4.48C171,68.23,160.75,57.24,150.19,50.28a25.47,25.47,0,0,1-8.38,15.16A68.13,68.13,0,0,1,179,90.05Z"/><path class="cls-6" d="M46.66,128.6l0-.08c.51-1.26,1.06-2.52,1.66-3.79l.12-.27c.37-.76.74-1.52,1.14-2.28s.81-1.52,1.25-2.29c.27-.47.54-1,.83-1.42.59-1,1.22-2,1.89-3q.32-.49.66-1l1.07-1.53c.21-.3.43-.6.65-.89.58-.79,1.18-1.58,1.8-2.36.36-.45.72-.91,1.09-1.36,1.29-1.56,2.59-3,3.89-4.37A68.21,68.21,0,0,1,108.2,65.44a25.41,25.41,0,0,1-8.71-19.18,25.11,25.11,0,0,1,.56-5.31A93.79,93.79,0,0,0,34.29,154.87a25.41,25.41,0,0,1,7.63-4.76c0-.67.08-1.35.14-2s.1-1.12.16-1.68A67.08,67.08,0,0,1,46.66,128.6Z"/><path class="cls-6" d="M49.6,122.18c-.4.76-.77,1.52-1.14,2.28C48.83,123.7,49.2,122.94,49.6,122.18Z"/><path class="cls-8" d="M150,41a25.44,25.44,0,0,1,.24,9.33c10.56,7,20.85,18,27.31,35.29q.85,2.28,1.53,4.48a68.09,68.09,0,0,1,11.52,59.57,25.5,25.5,0,0,1,25.17,5.24A93.82,93.82,0,0,0,150,41Z"/><path class="cls-8" d="M134.58,198.73c1.14.24,2.31.47,3.51.67,18.22,3.06,32.91-.32,44.28-5.94a25.56,25.56,0,0,1-8.73-14.53A67.89,67.89,0,0,1,134.58,198.73Z"/><circle class="cls-9" cx="125" cy="129.68" r="34.01"/></svg>