<?xml version="1.0" encoding="UTF-8" standalone="no"?>
<svg
   xmlns:dc="http://purl.org/dc/elements/1.1/"
   xmlns:cc="http://creativecommons.org/ns#"
   xmlns:rdf="http://www.w3.org/1999/02/22-rdf-syntax-ns#"
   xmlns:svg="http://www.w3.org/2000/svg"
   xmlns="http://www.w3.org/2000/svg"
   xmlns:sodipodi="http://sodipodi.sourceforge.net/DTD/sodipodi-0.dtd"
   xmlns:inkscape="http://www.inkscape.org/namespaces/inkscape"
   version="1.1"
   id="svg2"
   xml:space="preserve"
   width="1706.6667"
   height="853.33331"
   viewBox="0 0 1706.6667 853.33331"
   sodipodi:docname="logo-title-social.ai"><metadata
     id="metadata8"><rdf:RDF><cc:Work
         rdf:about=""><dc:format>image/svg+xml</dc:format><dc:type
           rdf:resource="http://purl.org/dc/dcmitype/StillImage" /></cc:Work></rdf:RDF></metadata><defs
     id="defs6"><clipPath
       clipPathUnits="userSpaceOnUse"
       id="clipPath26"><path
         d="M 0,640 H 1280 V 0 H 0 Z"
         id="path24" /></clipPath></defs><sodipodi:namedview
     pagecolor="#ffffff"
     bordercolor="#666666"
     borderopacity="1"
     objecttolerance="10"
     gridtolerance="10"
     guidetolerance="10"
     inkscape:pageopacity="0"
     inkscape:pageshadow="2"
     inkscape:window-width="640"
     inkscape:window-height="480"
     id="namedview4" /><g
     id="g10"
     inkscape:groupmode="layer"
     inkscape:label="logo-title-social"
     transform="matrix(1.3333333,0,0,-1.3333333,0,853.33333)"><text
       transform="matrix(1,0,0,-1,417.3325,260.7954)"
       style="font-variant:normal;font-weight:500;font-stretch:normal;font-size:200px;font-family:Futura;-inkscape-font-specification:Futura-Medium;writing-mode:lr-tb;fill:#606060;fill-opacity:1;fill-rule:nonzero;stroke:none"
       id="text14"><tspan
         x="0 100.3 220.3 340.29999 449.29999 499.10001 619.29999 728.29999"
         y="0"
         sodipodi:role="line"
         id="tspan12">Fabulous</tspan></text><g
       id="g16"
       transform="translate(510.6919,411.5767)"><path
         d="m 0,0 h -75.293 v -150.781 h 22.754 v 71.777 h 50.684 v 21.387 h -50.684 v 36.23 H 0 Z"
         style="fill:none;stroke:#ffffff;stroke-width:0.25;stroke-linecap:butt;stroke-linejoin:miter;stroke-miterlimit:10;stroke-dasharray:none;stroke-opacity:1"
         id="path18" /></g><g
       id="g20"><g
         id="g22"
         clip-path="url(#clipPath26)"><g
           id="g28"
           transform="translate(601.6099,344.8774)"><path
             d="m 0,0 c -8.789,9.114 -18.718,13.672 -29.785,13.672 -12.826,0 -23.503,-4.753 -32.031,-14.258 -8.53,-9.506 -12.793,-21.387 -12.793,-35.644 0,-14.519 4.263,-26.628 12.793,-36.329 8.593,-9.506 19.465,-14.257 32.617,-14.257 10.416,0 20.149,4.231 29.199,12.695 v -9.961 h 22.07 v 95.117 l -22.07,0 z m -44.629,-14.746 c 5.078,5.728 11.393,8.594 18.945,8.594 8.008,0 14.518,-2.832 19.532,-8.496 5.012,-5.796 7.519,-13.152 7.519,-22.071 0,-8.92 -2.507,-16.276 -7.519,-22.07 -5.014,-5.6 -11.589,-8.399 -19.727,-8.399 -7.617,0 -13.933,2.896 -18.945,8.692 -4.883,5.728 -7.324,13.15 -7.324,22.266 0,8.528 2.505,15.688 7.519,21.484 z"
             style="fill:none;stroke:#ffffff;stroke-width:0.25;stroke-linecap:butt;stroke-linejoin:miter;stroke-miterlimit:10;stroke-dasharray:none;stroke-opacity:1"
             id="path30" /></g><g
           id="g32"
           transform="translate(651.4146,425.7368)"><path
             d="m 0,0 v -164.941 h 21.973 v 9.961 c 8.658,-8.464 18.489,-12.696 29.492,-12.696 13.02,0 23.795,4.752 32.324,14.258 8.594,9.57 12.891,21.68 12.891,36.328 0,14.193 -4.265,26.041 -12.793,35.547 -8.53,9.57 -19.206,14.355 -32.032,14.355 -11.132,0 -21.093,-4.557 -29.882,-13.671 l 0,80.859 z m 66.602,-139.551 c -5.014,-5.664 -11.329,-8.496 -18.946,-8.496 -8.073,0 -14.584,2.832 -19.531,8.496 -4.948,5.533 -7.422,12.923 -7.422,22.168 0,8.985 2.506,16.275 7.52,21.875 5.078,5.664 11.653,8.496 19.726,8.496 7.552,0 13.834,-2.929 18.848,-8.789 4.947,-5.729 7.422,-13.151 7.422,-22.265 0,-8.594 -2.539,-15.757 -7.617,-21.485 z"
             style="fill:none;stroke:#ffffff;stroke-width:0.25;stroke-linecap:butt;stroke-linejoin:miter;stroke-miterlimit:10;stroke-dasharray:none;stroke-opacity:1"
             id="path34" /></g><g
           id="g36"
           transform="translate(771.3364,355.9126)"><path
             d="m 0,0 v -55.078 c 0,-8.725 0.911,-15.3 2.734,-19.727 1.888,-4.948 5.111,-9.408 9.668,-13.379 7.422,-6.445 16.829,-9.668 28.223,-9.668 11.458,0 20.898,3.223 28.32,9.668 4.493,3.971 7.65,8.431 9.473,13.379 1.888,5.533 2.832,12.11 2.832,19.727 V 0 H 59.277 v -54.59 c 0,-15.756 -6.217,-23.633 -18.652,-23.633 -12.436,0 -18.652,7.877 -18.652,23.633 l 0,54.59 z"
             style="fill:none;stroke:#ffffff;stroke-width:0.25;stroke-linecap:butt;stroke-linejoin:miter;stroke-miterlimit:10;stroke-dasharray:none;stroke-opacity:1"
             id="path38" /></g><path
           d="m 880.321,260.795 h 21.973 v 164.941 h -21.973 z"
           style="fill:none;stroke:#ffffff;stroke-width:0.25;stroke-linecap:butt;stroke-linejoin:miter;stroke-miterlimit:10;stroke-dasharray:none;stroke-opacity:1"
           id="path40" /><g
           id="g42"
           transform="translate(940.0864,272.7095)"><path
             d="m 0,0 c 9.635,-9.766 21.582,-14.648 35.84,-14.648 14.388,0 26.529,4.785 36.426,14.355 9.83,9.634 14.746,21.582 14.746,35.84 0,14.126 -4.883,26.04 -14.649,35.742 C 62.467,80.989 50.423,85.84 36.23,85.84 22.103,85.84 10.123,81.021 0.293,71.387 -9.538,61.751 -14.453,50.064 -14.453,36.328 -14.453,21.744 -9.636,9.634 0,0 Z m 15.82,57.617 c 5.208,5.599 12.012,8.399 20.41,8.399 8.529,0 15.397,-2.8 20.606,-8.399 5.143,-5.534 7.715,-12.924 7.715,-22.168 0,-9.245 -2.572,-16.635 -7.715,-22.168 C 51.692,7.747 44.824,4.98 36.23,4.98 c -8.529,0 -15.397,2.799 -20.605,8.399 -5.078,5.533 -7.617,13.052 -7.617,22.559 0,8.853 2.603,16.079 7.812,21.679 z"
             style="fill:none;stroke:#ffffff;stroke-width:0.25;stroke-linecap:butt;stroke-linejoin:miter;stroke-miterlimit:10;stroke-dasharray:none;stroke-opacity:1"
             id="path44" /></g><g
           id="g46"
           transform="translate(1050.3403,355.9126)"><path
             d="m 0,0 v -55.078 c 0,-8.725 0.911,-15.3 2.734,-19.727 1.888,-4.948 5.111,-9.408 9.668,-13.379 7.422,-6.445 16.829,-9.668 28.223,-9.668 11.458,0 20.898,3.223 28.32,9.668 4.493,3.971 7.65,8.431 9.473,13.379 1.888,5.533 2.832,12.11 2.832,19.727 V 0 H 59.277 v -54.59 c 0,-15.756 -6.217,-23.633 -18.652,-23.633 -12.436,0 -18.652,7.877 -18.652,23.633 l 0,54.59 z"
             style="fill:none;stroke:#ffffff;stroke-width:0.25;stroke-linecap:butt;stroke-linejoin:miter;stroke-miterlimit:10;stroke-dasharray:none;stroke-opacity:1"
             id="path48" /></g><g
           id="g50"
           transform="translate(1187.4497,358.5493)"><path
             d="m 0,0 c -8.269,0 -15.3,-2.702 -21.094,-8.105 -5.664,-5.405 -8.496,-12.241 -8.496,-20.508 0,-6.25 1.66,-11.362 4.981,-15.332 2.603,-3.125 7.095,-6.25 13.476,-9.375 2.279,-1.108 4.525,-2.182 6.738,-3.223 2.213,-1.042 4.427,-2.116 6.641,-3.223 5.729,-3.385 8.594,-7.031 8.594,-10.937 0,-6.772 -3.711,-10.156 -11.133,-10.156 -3.711,0 -6.901,1.235 -9.57,3.711 -1.367,1.235 -3.354,4.133 -5.957,8.691 l -18.75,-8.691 c 6.64,-15.561 17.935,-23.34 33.886,-23.34 9.31,0 17.252,2.929 23.829,8.789 6.77,6.184 10.156,13.867 10.156,23.047 0,7.161 -2.019,12.857 -6.055,17.089 -4.037,4.232 -11.882,8.854 -23.535,13.868 -8.464,3.579 -12.695,7.193 -12.695,10.84 0,2.083 0.715,3.792 2.148,5.126 1.432,1.334 3.157,2.002 5.176,2.002 4.231,0 7.779,-2.929 10.644,-8.789 l 18.164,9.668 C 21.224,-6.284 12.174,0 0,0 Z"
             style="fill:none;stroke:#ffffff;stroke-width:0.25;stroke-linecap:butt;stroke-linejoin:miter;stroke-miterlimit:10;stroke-dasharray:none;stroke-opacity:1"
             id="path52" /></g><g
           id="g54"
           transform="translate(233.376,457.7979)"><path
             d="m 0,0 c 0,-20.546 -16.656,-37.203 -37.203,-37.203 -20.546,0 -37.202,16.657 -37.202,37.203 0,20.546 16.656,37.202 37.202,37.202 C -16.656,37.202 0,20.546 0,0"
             style="fill:#7ac943;fill-opacity:1;fill-rule:nonzero;stroke:none"
             id="path56" /></g><g
           id="g58"
           transform="translate(104.5068,234.5835)"><path
             d="m 0,0 c 0,-20.546 -16.656,-37.203 -37.203,-37.203 -20.546,0 -37.202,16.657 -37.202,37.203 0,20.546 16.656,37.202 37.202,37.202 C -16.656,37.202 0,20.546 0,0"
             style="fill:#7ac943;fill-opacity:1;fill-rule:nonzero;stroke:none"
             id="path60" /></g><g
           id="g62"
           transform="translate(362.2451,234.5835)"><path
             d="m 0,0 c 0,-20.546 -16.656,-37.203 -37.203,-37.203 -20.546,0 -37.202,16.657 -37.202,37.203 0,20.546 16.656,37.202 37.202,37.202 C -16.656,37.202 0,20.546 0,0"
             style="fill:#7ac943;fill-opacity:1;fill-rule:nonzero;stroke:none"
             id="path64" /></g><g
           id="g66"
           transform="translate(240.2593,450.7593)"><path
             d="M 0,0 C -0.792,0.522 -1.585,1.029 -2.378,1.526 -1.585,1.029 -0.792,0.522 0,0"
             style="fill:#ffffff;fill-opacity:1;fill-rule:nonzero;stroke:none"
             id="path68" /></g><g
           id="g70"
           transform="translate(50.7813,276.0542)"><path
             d="M 0,0 Z"
             style="fill:#054a91;fill-opacity:1;fill-rule:nonzero;stroke:none"
             id="path72" /></g><g
           id="g74"
           transform="translate(78.4844,346.7993)"><path
             d="M 0,0 C -1.092,-1.377 -2.138,-2.755 -3.153,-4.132 -2.138,-2.755 -1.092,-1.377 0,0"
             style="fill:#054a91;fill-opacity:1;fill-rule:nonzero;stroke:none"
             id="path76" /></g><g
           id="g78"
           transform="translate(71.1636,336.6978)"><path
             d="M 0,0 C -1.161,-1.758 -2.261,-3.514 -3.306,-5.268 -2.261,-3.514 -1.161,-1.758 0,0"
             style="fill:#054a91;fill-opacity:1;fill-rule:nonzero;stroke:none"
             id="path80" /></g><g
           id="g82"
           transform="translate(74.2026,341.1108)"><path
             d="M 0,0 C -0.642,-0.896 -1.268,-1.792 -1.878,-2.687 -1.268,-1.792 -0.642,-0.896 0,0"
             style="fill:#054a91;fill-opacity:1;fill-rule:nonzero;stroke:none"
             id="path84" /></g><g
           id="g86"
           transform="translate(66.4067,328.9341)"><path
             d="M 0,0 C -1.514,-2.673 -2.906,-5.339 -4.171,-7.994 -2.907,-5.339 -1.514,-2.673 0,0"
             style="fill:#054a91;fill-opacity:1;fill-rule:nonzero;stroke:none"
             id="path88" /></g><g
           id="g90"
           transform="translate(62.019,320.478)"><path
             d="M 0,0 C -1.048,-2.223 -2.016,-4.438 -2.899,-6.643 -2.016,-4.438 -1.048,-2.223 0,0"
             style="fill:#054a91;fill-opacity:1;fill-rule:nonzero;stroke:none"
             id="path92" /></g><g
           id="g94"
           transform="translate(59.0703,313.708)"><path
             d="M 0,0 C -4.287,-10.728 -6.688,-21.202 -7.763,-31.137 -6.688,-21.202 -4.287,-10.728 0,0"
             style="fill:#054a91;fill-opacity:1;fill-rule:nonzero;stroke:none"
             id="path96" /></g><g
           id="g98"
           transform="translate(50.7813,276.0547)"><path
             d="M 0,0 V 0 C 0.062,1.181 0.147,2.373 0.247,3.572 0.147,2.373 0.062,1.181 0,0"
             style="fill:#054a91;fill-opacity:1;fill-rule:nonzero;stroke:none"
             id="path100" /></g><g
           id="g102"
           transform="translate(219.0728,189.8027)"><path
             d="m 0,0 c -2.095,0.353 -4.133,0.746 -6.126,1.171 -5.481,-0.773 -11.079,-1.182 -16.773,-1.182 -33.362,0 -63.513,13.729 -85.127,35.838 -3.22,-15.807 -14.796,-28.573 -29.913,-33.495 29.599,-29.147 70.216,-47.135 115.04,-47.135 44.821,0 85.438,17.987 115.038,47.131 C 86.734,4.088 81.779,6.848 77.5,10.395 57.609,0.556 31.898,-5.364 0,0"
             style="fill:#3e7cb1;fill-opacity:1;fill-rule:nonzero;stroke:none"
             id="path104" /></g><g
           id="g106"
           transform="translate(87.2017,356.8252)"><path
             d="m 0,0 c -2.28,-2.386 -4.55,-4.931 -6.802,-7.659 -0.651,-0.788 -1.29,-1.578 -1.915,-2.367 -1.092,-1.377 -2.138,-2.755 -3.153,-4.132 -0.382,-0.519 -0.757,-1.038 -1.129,-1.556 -0.642,-0.896 -1.268,-1.792 -1.878,-2.687 -0.393,-0.576 -0.781,-1.151 -1.161,-1.726 -1.161,-1.758 -2.261,-3.515 -3.306,-5.269 -0.496,-0.832 -0.98,-1.664 -1.451,-2.495 -0.757,-1.337 -1.484,-2.671 -2.179,-4.004 -0.695,-1.333 -1.359,-2.663 -1.992,-3.99 -0.074,-0.154 -0.144,-0.308 -0.217,-0.462 -1.047,-2.223 -2.015,-4.439 -2.899,-6.643 -0.017,-0.042 -0.032,-0.085 -0.049,-0.127 -4.287,-10.728 -6.689,-21.202 -7.764,-31.137 -0.106,-0.988 -0.197,-1.968 -0.278,-2.945 -0.1,-1.198 -0.185,-2.39 -0.247,-3.572 5.112,2.039 10.683,3.172 16.523,3.172 4.95,0 9.706,-0.818 14.155,-2.305 -2.82,10.159 -4.334,20.861 -4.334,31.918 0,17.075 3.602,33.306 10.076,47.986"
             style="fill:#3e7cb1;fill-opacity:1;fill-rule:nonzero;stroke:none"
             id="path108" /></g><g
           id="g110"
           transform="translate(290.7339,381.1582)"><path
             d="M 0,0 C -0.794,2.569 -1.684,5.184 -2.677,7.847 -13.995,38.192 -31.997,57.418 -50.475,69.601 -52.142,59.078 -57.489,49.783 -65.15,43.064 -38.837,36.377 -16.027,20.925 0,0"
             style="fill:#054a91;fill-opacity:1;fill-rule:nonzero;stroke:none"
             id="path112" /></g><g
           id="g114"
           transform="translate(59.0703,313.708)"><path
             d="m 0,0 c 0.017,0.042 0.033,0.085 0.049,0.127 0.884,2.205 1.852,4.42 2.9,6.643 0.072,0.154 0.143,0.308 0.217,0.462 0.632,1.328 1.296,2.658 1.991,3.99 0.696,1.333 1.423,2.668 2.179,4.004 0.472,0.831 0.955,1.663 1.451,2.496 1.046,1.754 2.146,3.51 3.306,5.268 0.38,0.575 0.768,1.15 1.161,1.726 0.61,0.895 1.236,1.791 1.878,2.687 0.372,0.518 0.747,1.037 1.129,1.556 1.015,1.377 2.061,2.755 3.153,4.132 0.626,0.789 1.264,1.579 1.916,2.367 2.252,2.728 4.521,5.273 6.801,7.659 14.607,33.121 43.864,58.327 79.566,67.398 -9.335,8.183 -15.237,20.186 -15.237,33.575 0,3.184 0.34,6.289 0.974,9.285 C 24.067,134.257 -26.885,70.725 -26.885,-4.72 c 0,-14.25 1.826,-28.072 5.244,-41.254 3.893,3.509 8.402,6.347 13.352,8.321 0.062,1.181 0.147,2.373 0.247,3.571 0.081,0.977 0.172,1.957 0.279,2.945 C -6.688,-21.202 -4.287,-10.728 0,0"
             style="fill:#054a91;fill-opacity:1;fill-rule:nonzero;stroke:none"
             id="path116" /></g><g
           id="g118"
           transform="translate(64.2275,324.9302)"><path
             d="M 0,0 C -0.695,-1.333 -1.359,-2.663 -1.992,-3.99 -1.359,-2.663 -0.695,-1.333 0,0"
             style="fill:#054a91;fill-opacity:1;fill-rule:nonzero;stroke:none"
             id="path120" /></g><g
           id="g122"
           transform="translate(239.8418,467.0869)"><path
             d="m 0,0 c 0.635,-2.997 0.975,-6.103 0.975,-9.289 0,-2.396 -0.194,-4.745 -0.558,-7.039 18.478,-12.182 36.48,-31.408 47.798,-61.754 0.993,-2.663 1.883,-5.278 2.677,-7.847 15.356,-20.048 24.487,-45.115 24.487,-72.319 0,-11.057 -1.513,-21.759 -4.334,-31.918 4.45,1.488 9.206,2.305 14.156,2.305 11.494,0 21.972,-4.347 29.885,-11.483 3.415,13.178 5.234,26.999 5.234,41.245 C 120.32,-82.654 69.368,-19.118 0,0"
             style="fill:#81a4cd;fill-opacity:1;fill-rule:nonzero;stroke:none"
             id="path124" /></g><g
           id="g126"
           transform="translate(212.9463,190.9736)"><path
             d="M 0,0 C 1.994,-0.425 4.031,-0.818 6.126,-1.171 38.025,-6.535 63.735,-0.615 83.626,9.224 75.938,15.598 70.422,24.5 68.354,34.656 50.428,16.32 26.631,3.756 0,0"
             style="fill:#81a4cd;fill-opacity:1;fill-rule:nonzero;stroke:none"
             id="path128" /></g><g
           id="g130"
           transform="translate(255.6973,311.8154)"><path
             d="m 0,0 c 0,-32.874 -26.65,-59.524 -59.524,-59.524 -32.874,0 -59.523,26.65 -59.523,59.524 0,32.874 26.649,59.524 59.523,59.524 C -26.65,59.524 0,32.874 0,0"
             style="fill:#fbb03b;fill-opacity:1;fill-rule:nonzero;stroke:none"
             id="path132" /></g></g></g></g></svg>
